<mxfile host="Electron" modified="2023-08-27T12:36:54.405Z" agent="Mozilla/5.0 (Windows NT 10.0; Win64; x64) AppleWebKit/537.36 (KHTML, like Gecko) draw.io/21.6.1 Chrome/112.0.5615.204 Electron/24.6.1 Safari/537.36" etag="D3idhTMh9p_QfITerLmF" version="21.6.1" type="device">
  <diagram name="Page-1" id="D5XihtfsH5RFpaHhEKw4">
    <mxGraphModel dx="778" dy="495" grid="1" gridSize="10" guides="1" tooltips="1" connect="1" arrows="1" fold="1" page="1" pageScale="1" pageWidth="850" pageHeight="1100" math="0" shadow="0">
      <root>
        <mxCell id="0" />
        <mxCell id="1" parent="0" />
        <mxCell id="0P7jb8mBJZbu5w67jT8d-1" value="THE TAUSPACE BANK PROGRAM ARCHITECTURE" style="text;html=1;strokeColor=#EA6B66;fillColor=none;align=center;verticalAlign=middle;whiteSpace=wrap;rounded=0;" vertex="1" parent="1">
          <mxGeometry x="290" y="40" width="60" height="30" as="geometry" />
        </mxCell>
        <mxCell id="0P7jb8mBJZbu5w67jT8d-4" style="edgeStyle=orthogonalEdgeStyle;rounded=0;orthogonalLoop=1;jettySize=auto;html=1;exitX=1;exitY=0.5;exitDx=0;exitDy=0;" edge="1" parent="1" source="0P7jb8mBJZbu5w67jT8d-3">
          <mxGeometry relative="1" as="geometry">
            <mxPoint x="270" y="310" as="targetPoint" />
            <mxPoint x="200" y="210" as="sourcePoint" />
          </mxGeometry>
        </mxCell>
        <mxCell id="0P7jb8mBJZbu5w67jT8d-3" value="Client System.&lt;br&gt;(&#39;ATM&#39;)" style="ellipse;whiteSpace=wrap;html=1;" vertex="1" parent="1">
          <mxGeometry x="40" y="200" width="120" height="80" as="geometry" />
        </mxCell>
        <mxCell id="0P7jb8mBJZbu5w67jT8d-7" value="" style="edgeStyle=orthogonalEdgeStyle;rounded=0;orthogonalLoop=1;jettySize=auto;html=1;" edge="1" parent="1" source="0P7jb8mBJZbu5w67jT8d-5" target="0P7jb8mBJZbu5w67jT8d-6">
          <mxGeometry relative="1" as="geometry" />
        </mxCell>
        <mxCell id="0P7jb8mBJZbu5w67jT8d-5" value="&lt;i&gt;Client REST API&amp;nbsp;&lt;/i&gt;" style="rounded=0;whiteSpace=wrap;html=1;" vertex="1" parent="1">
          <mxGeometry x="230" y="310" width="120" height="60" as="geometry" />
        </mxCell>
        <mxCell id="0P7jb8mBJZbu5w67jT8d-9" value="" style="edgeStyle=orthogonalEdgeStyle;rounded=0;orthogonalLoop=1;jettySize=auto;html=1;" edge="1" parent="1" source="0P7jb8mBJZbu5w67jT8d-6" target="0P7jb8mBJZbu5w67jT8d-8">
          <mxGeometry relative="1" as="geometry" />
        </mxCell>
        <mxCell id="0P7jb8mBJZbu5w67jT8d-6" value="&lt;i&gt;ACCOUNT&amp;nbsp;&lt;br&gt;GenServer&lt;br&gt;&lt;/i&gt;" style="rounded=0;whiteSpace=wrap;html=1;" vertex="1" parent="1">
          <mxGeometry x="430" y="310" width="120" height="60" as="geometry" />
        </mxCell>
        <mxCell id="0P7jb8mBJZbu5w67jT8d-8" value="&lt;i&gt;Bank Data&lt;br&gt;Model&lt;br&gt;&lt;/i&gt;" style="rounded=0;whiteSpace=wrap;html=1;" vertex="1" parent="1">
          <mxGeometry x="630" y="310" width="120" height="60" as="geometry" />
        </mxCell>
        <mxCell id="0P7jb8mBJZbu5w67jT8d-11" style="edgeStyle=orthogonalEdgeStyle;rounded=0;orthogonalLoop=1;jettySize=auto;html=1;" edge="1" parent="1" source="0P7jb8mBJZbu5w67jT8d-10" target="0P7jb8mBJZbu5w67jT8d-12">
          <mxGeometry relative="1" as="geometry">
            <mxPoint x="210" y="480" as="targetPoint" />
          </mxGeometry>
        </mxCell>
        <mxCell id="0P7jb8mBJZbu5w67jT8d-10" value="Client User" style="ellipse;whiteSpace=wrap;html=1;" vertex="1" parent="1">
          <mxGeometry x="40" y="440" width="120" height="80" as="geometry" />
        </mxCell>
        <mxCell id="0P7jb8mBJZbu5w67jT8d-13" style="edgeStyle=orthogonalEdgeStyle;rounded=0;orthogonalLoop=1;jettySize=auto;html=1;entryX=0.5;entryY=1;entryDx=0;entryDy=0;" edge="1" parent="1" source="0P7jb8mBJZbu5w67jT8d-12" target="0P7jb8mBJZbu5w67jT8d-5">
          <mxGeometry relative="1" as="geometry" />
        </mxCell>
        <mxCell id="0P7jb8mBJZbu5w67jT8d-12" value="User Interface" style="rounded=1;whiteSpace=wrap;html=1;" vertex="1" parent="1">
          <mxGeometry x="210" y="450" width="120" height="60" as="geometry" />
        </mxCell>
        <mxCell id="0P7jb8mBJZbu5w67jT8d-14" value="Postgres Database" style="shape=document;whiteSpace=wrap;html=1;boundedLbl=1;rounded=0;" vertex="1" parent="1">
          <mxGeometry x="800" y="150" width="120" height="80" as="geometry" />
        </mxCell>
        <mxCell id="0P7jb8mBJZbu5w67jT8d-17" value="Registry/Supervisor" style="rounded=1;whiteSpace=wrap;html=1;" vertex="1" parent="1">
          <mxGeometry x="630" y="440" width="120" height="60" as="geometry" />
        </mxCell>
        <mxCell id="0P7jb8mBJZbu5w67jT8d-18" value="" style="endArrow=classic;startArrow=classic;html=1;rounded=0;exitX=0.5;exitY=0;exitDx=0;exitDy=0;" edge="1" parent="1" source="0P7jb8mBJZbu5w67jT8d-17">
          <mxGeometry width="50" height="50" relative="1" as="geometry">
            <mxPoint x="640" y="420" as="sourcePoint" />
            <mxPoint x="690" y="370" as="targetPoint" />
          </mxGeometry>
        </mxCell>
        <mxCell id="0P7jb8mBJZbu5w67jT8d-19" value="" style="endArrow=classic;startArrow=classic;html=1;rounded=0;exitX=0.983;exitY=0.622;exitDx=0;exitDy=0;exitPerimeter=0;entryX=0.35;entryY=1.017;entryDx=0;entryDy=0;entryPerimeter=0;" edge="1" parent="1" source="0P7jb8mBJZbu5w67jT8d-8" target="0P7jb8mBJZbu5w67jT8d-14">
          <mxGeometry width="50" height="50" relative="1" as="geometry">
            <mxPoint x="800" y="330" as="sourcePoint" />
            <mxPoint x="850" y="280" as="targetPoint" />
          </mxGeometry>
        </mxCell>
        <mxCell id="0P7jb8mBJZbu5w67jT8d-20" value="Phoenix" style="shape=parallelogram;perimeter=parallelogramPerimeter;whiteSpace=wrap;html=1;fixedSize=1;" vertex="1" parent="1">
          <mxGeometry x="440" y="160" width="120" height="60" as="geometry" />
        </mxCell>
        <mxCell id="0P7jb8mBJZbu5w67jT8d-21" value="" style="endArrow=classic;html=1;rounded=0;entryX=0.5;entryY=0;entryDx=0;entryDy=0;exitX=0.5;exitY=1;exitDx=0;exitDy=0;" edge="1" parent="1" source="0P7jb8mBJZbu5w67jT8d-20" target="0P7jb8mBJZbu5w67jT8d-6">
          <mxGeometry width="50" height="50" relative="1" as="geometry">
            <mxPoint x="420" y="280" as="sourcePoint" />
            <mxPoint x="470" y="230" as="targetPoint" />
          </mxGeometry>
        </mxCell>
        <mxCell id="0P7jb8mBJZbu5w67jT8d-23" value="ECTO" style="text;html=1;strokeColor=none;fillColor=none;align=center;verticalAlign=middle;whiteSpace=wrap;rounded=0;" vertex="1" parent="1">
          <mxGeometry x="750" y="260" width="60" height="30" as="geometry" />
        </mxCell>
        <mxCell id="0P7jb8mBJZbu5w67jT8d-24" value="JSON" style="text;html=1;strokeColor=none;fillColor=none;align=center;verticalAlign=middle;whiteSpace=wrap;rounded=0;" vertex="1" parent="1">
          <mxGeometry x="260" y="230" width="60" height="30" as="geometry" />
        </mxCell>
      </root>
    </mxGraphModel>
  </diagram>
</mxfile>
